<svg width="90" height="130" viewBox="0 0 90 130" fill="none" xmlns="http://www.w3.org/2000/svg">
<rect y="120" width="10" height="10" fill="#FAFAF8" fill-opacity="0.75"/>
<rect y="110" width="10" height="10" fill="#FAFAF8" fill-opacity="0.75"/>
<rect y="100" width="10" height="10" fill="#FAFAF8" fill-opacity="0.75"/>
<rect x="10" y="100" width="10" height="10" fill="#FAFAF8" fill-opacity="0.75"/>
<rect x="10" y="120" width="10" height="10" fill="#FAFAF8" fill-opacity="0.75"/>
<rect x="20" y="120" width="10" height="10" fill="#FAFAF8" fill-opacity="0.75"/>
<rect x="30" y="120" width="10" height="10" fill="#FAFAF8" fill-opacity="0.75"/>
<rect x="40" y="120" width="10" height="10" fill="#FAFAF8" fill-opacity="0.75"/>
<rect x="50" y="120" width="10" height="10" fill="#FAFAF8" fill-opacity="0.75"/>
<rect x="60" y="120" width="10" height="10" fill="#FAFAF8" fill-opacity="0.75"/>
<rect x="70" y="120" width="10" height="10" fill="#FAFAF8" fill-opacity="0.75"/>
<rect x="30" y="110" width="10" height="10" fill="#FAFAF8" fill-opacity="0.75"/>
<rect x="30" y="100" width="10" height="10" fill="#FAFAF8" fill-opacity="0.75"/>
<rect x="30" y="90" width="10" height="10" fill="#FAFAF8" fill-opacity="0.75"/>
<rect x="30" y="80" width="10" height="10" fill="#FAFAF8" fill-opacity="0.75"/>
<rect x="40" y="70" width="10" height="10" fill="#FAFAF8" fill-opacity="0.75"/>
<rect x="40" y="60" width="10" height="10" fill="#FAFAF8" fill-opacity="0.75"/>
<rect x="50" y="60" width="10" height="10" fill="#FAFAF8" fill-opacity="0.75"/>
<rect x="60" y="60" width="10" height="10" fill="#FAFAF8" fill-opacity="0.75"/>
<rect x="70" y="60" width="10" height="10" fill="#FAFAF8" fill-opacity="0.75"/>
<rect x="70" y="70" width="10" height="10" fill="#FAFAF8" fill-opacity="0.75"/>
<rect x="70" y="80" width="10" height="10" fill="#FAFAF8" fill-opacity="0.75"/>
<rect x="70" y="90" width="10" height="10" fill="#FAFAF8" fill-opacity="0.75"/>
<rect x="70" y="100" width="10" height="10" fill="#FAFAF8" fill-opacity="0.75"/>
<rect x="70" y="110" width="10" height="10" fill="#FAFAF8" fill-opacity="0.75"/>
<rect x="60" y="110" width="10" height="10" fill="#FAFAF8" fill-opacity="0.75"/>
<rect x="50" y="110" width="10" height="10" fill="#FAFAF8" fill-opacity="0.75"/>
<rect x="40" y="110" width="10" height="10" fill="#FAFAF8" fill-opacity="0.75"/>
<rect x="40" y="100" width="10" height="10" fill="#FAFAF8" fill-opacity="0.75"/>
<rect x="40" y="90" width="10" height="10" fill="#FAFAF8" fill-opacity="0.75"/>
<rect x="50" y="80" width="10" height="10" fill="#FAFAF8" fill-opacity="0.75"/>
<rect x="60" y="70" width="10" height="10" fill="#FAFAF8" fill-opacity="0.75"/>
<rect x="50" y="70" width="10" height="10" fill="#FAFAF8" fill-opacity="0.75"/>
<rect x="40" y="80" width="10" height="10" fill="#FAFAF8" fill-opacity="0.75"/>
<rect x="50" y="90" width="10" height="10" fill="#FAFAF8" fill-opacity="0.75"/>
<rect x="60" y="100" width="10" height="10" fill="#FAFAF8" fill-opacity="0.75"/>
<rect x="50" y="100" width="10" height="10" fill="#FAFAF8" fill-opacity="0.75"/>
<rect x="60" y="90" width="10" height="10" fill="#FAFAF8" fill-opacity="0.75"/>
<rect x="60" y="80" width="10" height="10" fill="#FAFAF8" fill-opacity="0.75"/>
<rect x="70" y="40" width="10" height="10" fill="#FAFAF8" fill-opacity="0.75"/>
<rect x="80" y="40" width="10" height="10" fill="#FAFAF8" fill-opacity="0.75"/>
<rect x="60" y="40" width="10" height="10" fill="#FAFAF8" fill-opacity="0.75"/>
<rect x="50" y="40" width="10" height="10" fill="#FAFAF8" fill-opacity="0.75"/>
<rect x="40" y="40" width="10" height="10" fill="#FAFAF8" fill-opacity="0.75"/>
<rect x="40" y="30" width="10" height="10" fill="#FAFAF8" fill-opacity="0.75"/>
<rect x="40" y="20" width="10" height="10" fill="#FAFAF8" fill-opacity="0.75"/>
<rect x="40" y="10" width="10" height="10" fill="#FAFAF8" fill-opacity="0.75"/>
<rect x="40" width="10" height="10" fill="#FAFAF8" fill-opacity="0.75"/>
<rect x="50" y="10" width="10" height="10" fill="#FAFAF8" fill-opacity="0.75"/>
<rect x="60" y="20" width="10" height="10" fill="#FAFAF8" fill-opacity="0.75"/>
<rect x="60" y="30" width="10" height="10" fill="#FAFAF8" fill-opacity="0.75"/>
<rect x="50" y="20" width="10" height="10" fill="#FAFAF8" fill-opacity="0.75"/>
<rect x="70" y="20" width="10" height="10" fill="#FAFAF8" fill-opacity="0.75"/>
<rect x="80" y="30" width="10" height="10" fill="#FAFAF8" fill-opacity="0.75"/>
<rect x="80" y="20" width="10" height="10" fill="#FAFAF8" fill-opacity="0.75"/>
<rect x="80" y="10" width="10" height="10" fill="#FAFAF8" fill-opacity="0.75"/>
<rect x="70" width="10" height="10" fill="#FAFAF8" fill-opacity="0.75"/>
<rect x="70" y="10" width="10" height="10" fill="#FAFAF8" fill-opacity="0.75"/>
</svg>
