<svg width="360" height="250" viewBox="0 0 360 250" fill="none" xmlns="http://www.w3.org/2000/svg">
  <path d="M150 210H160V250H130V230H120V200H150V210Z" fill="#39393D"/>
  <path d="M40 180H30V190H20V200H0V170H10V150H40V180Z" fill="#39393D"/>
  <path d="M180 80H210V90H220V100H200V90H120V80H130V70H180V80Z" fill="#39393D"/>
  <path d="M90 90H60V70H90V90Z" fill="#39393D"/>
  <path d="M340 70H360V90H330V60H340V70Z" fill="#39393D"/>
  <path d="M240 10H250V30H230V20H210V10H200V0H240V10Z" fill="#39393D"/>
  <path d="M210 10V20H230V30H260V40H270V50H290V60H330V90H260V80H240V100H230V110H220V90H210V80H180V70H130V80H120V70H110V80H100V90H90V70H70V60H80V50H100V40H120V30H150V20H170V10H210Z" style="fill: var(--svg-logo-arc)" fill-opacity="0.75"/>
  <path d="M200 100H220V130H210V150H200V160H190V170H180V190H170V210H150V200H130V180H140V160H150V140H160V120H150V130H130V140H110V150H90V160H70V170H50V180H40V150H30V140H50V130H70V120H80V110H90V100H110V90H200V100Z" style="fill: var(--svg-logo-streak)" fill-opacity="0.5"/>
</svg>